<?xml version="1.0" standalone="no"?><!DOCTYPE svg PUBLIC "-//W3C//DTD SVG 1.1//EN" "http://www.w3.org/Graphics/SVG/1.1/DTD/svg11.dtd"><svg t="1511848202443" class="icon" style="" viewBox="0 0 1024 1024" version="1.1" xmlns="http://www.w3.org/2000/svg" p-id="2976" xmlns:xlink="http://www.w3.org/1999/xlink" width="32" height="32"><defs><style type="text/css"></style></defs><path d="M514 63C267 63 66 264 66 511s201 448 448 448 448-201 448-448S761 63 514 63z m0 873.6C279.3 936.6 88.4 745.7 88.4 511 88.4 276.3 279.3 85.4 514 85.4S939.6 276.3 939.6 511c0 234.7-190.9 425.6-425.6 425.6zM760.9 404h-86.8v42.7H616v86.8H514.3c0-38.5 0.3-75.8-0.1-113-0.3-31-16.4-51.8-46.6-58.9-9.9-2.3-12.4-6.7-12-15.9 0.6-13.9 0.4-27.9 0.1-41.8-0.5-20.2-11.1-30.7-31.1-31.3-8.6-0.2-17.2 0-26.8 0 0-37.4 0.5-71.9-0.3-106.4-0.2-8.3-4.5-16.4-6.9-24.6h-13.4c-2.8 8.6-7.8 17.2-8 25.9-0.9 34.4-0.4 68.8-0.4 104.3-7.1 0.3-12.5 0.8-18 0.8-31.9 0.2-40 8.5-40 41V358c-3.5 1.1-6.4 2.2-9.5 2.9-32 7.8-48.4 27.7-48.4 60.6-0.2 95.3-0.1 190.5-0.1 285.8 0 34.5 0.3 69.1 0.5 103.6h522.1V448.8c-4.5-1.5-8.9-2.9-14.4-4.6V404z m-420.1-87.9c0.8-5.4 9.3-13.1 15-13.6 18.2-1.7 36.7-0.8 55-0.6 11 0.1 16.1 6.8 16.4 17.1 0.4 12.7 0.1 25.5 0.1 40.1h-87.2c0-14.7-1.5-29.2 0.7-43z m143.9 456.5c0 2.1-0.5 4.3-0.9 7.5h-202v-83.6-269.2c0-29.2 8.9-38.2 37.6-38.2 44.6 0 89.2-0.1 133.8 0.1 20.5 0.1 31.4 10.5 31.5 30.6 0.1 117.6 0 235.2 0 352.8z m130.8 7.2H515.4V564.1h100.1v215.7z m130.1 0.3h-99.1V476.8h99.1v303.3z m-397.7-85.8c-17.2-0.3-22.4 4.6-22.7 21-0.3 17.6 4 22.3 20.8 22.5 17.9 0.2 22.3-3.8 22.7-20.6 0.4-17.3-4.5-22.7-20.8-22.9z m0.4-87c-18-0.3-22.7 3.8-23.1 20.4-0.4 17.6 4.2 22.8 20.4 23.1 17.9 0.4 22.6-3.8 23.1-20.5 0.5-17.5-4.1-22.7-20.4-23z m-0.8-87.6c-17.3-0.2-22.1 4.5-22.3 21.4-0.1 17.6 4 22 21.1 22.1 17.6 0.1 22.2-4.2 22.4-21 0.2-17.2-4.7-22.4-21.2-22.5z m71.9 87.6c-16.7 0.1-21.7 5.1-21.7 22 0.1 16.7 5.1 21.5 22.3 21.5 17.4-0.1 21.3-4.1 21.2-22.1 0-17.6-4-21.5-21.8-21.4z m-0.2-87.6c-16.5 0.2-21.6 5.5-21.4 22.4 0.2 16.7 4.9 21.1 22.4 21.1 17.6-0.1 21.2-3.8 21.1-22.1-0.2-17.1-4.8-21.6-22.1-21.4z m0.6-43.5c17.6 0 21.4-4 21.4-21.9 0-17.8-3.9-21.6-21.7-21.6-17 0-21.9 4.9-21.8 21.8 0.1 16.8 5 21.7 22.1 21.7z m-73.6 0c17.5 0.2 22.2-4.2 22.5-21 0.3-17.3-4.4-22.3-21-22.5-17.5-0.2-22.3 4.3-22.5 21-0.2 17.4 4.3 22.3 21 22.5z m73.6 218.1c-16.6 0-22 5.4-22.1 21.9 0 17.1 4.5 21.6 21.9 21.6 18.1 0 21.6-3.4 21.6-21.5 0.1-17.4-4.5-22-21.4-22z m277.6-131.1c14.4 1.6 21.1-5.3 20.6-21.1-0.5-17.8-4.9-22.7-22.6-22.4-16.6 0.2-21.1 5-21 22.3 0.1 17.1 4.3 21.2 23 21.2z m-0.9 44.1c-17.4-0.1-22.1 4.4-22.1 21.3-0.1 17.5 4.3 22 21.5 22.1 17.4 0.1 21.9-4.3 22-21.5 0.1-17.3-4.3-21.9-21.4-21.9z m-0.4 87c-16.9-0.1-21.7 4.8-21.7 22 0 17.7 3.9 21.5 21.8 21.5 17.6 0 21.8-4.1 21.7-21.5 0-16.9-5-22-21.8-22z m-131.4-43.5c17.2 0.2 22.5-4.7 22.7-21.1 0.3-16.7-4.9-22.2-21.5-22.4-17.8-0.2-21.8 3.6-22 21.1-0.2 18.4 3.4 22.2 20.8 22.4z m0.8 43.5c-17.2-0.1-21.6 4.3-21.6 21.7-0.1 18.3 3.4 21.8 21.3 21.8 17.4 0 22.2-4.5 22.2-21.3 0-16.5-5.5-22.1-21.9-22.2z" p-id="2977" fill="#707070"></path></svg>